<svg width="201" height="200" viewBox="0 0 201 200" fill="none" xmlns="http://www.w3.org/2000/svg">
<rect x="-2" y="100" width="141.421" height="141.421" rx="5" transform="rotate(-45 -2 100)" fill="#15015E"/>
<mask id="path-2-outside-1_2_113" maskUnits="userSpaceOnUse" x="52" y="71" width="61" height="92" fill="black">
<rect fill="white" x="52" y="71" width="61" height="92"/>
<path d="M53.8232 72L53.8232 161.455H111.13V147.87H70.0281V123.585L107.199 123.585V110.001L70.0281 110.001V72H53.8232Z"/>
</mask>
<path d="M53.8232 72L53.8232 161.455H111.13V147.87H70.0281V123.585L107.199 123.585V110.001L70.0281 110.001V72H53.8232Z" fill="white"/>
<path d="M53.8232 72H52.8232C52.8232 71.4477 53.2709 71 53.8232 71V72ZM53.8232 161.455V162.455C53.2709 162.455 52.8232 162.007 52.8232 161.455H53.8232ZM111.13 161.455H112.13C112.13 162.007 111.682 162.455 111.13 162.455V161.455ZM111.13 147.87V146.87C111.682 146.87 112.13 147.318 112.13 147.87H111.13ZM70.0281 147.87V148.87C69.4758 148.87 69.0281 148.423 69.0281 147.87H70.0281ZM70.0281 123.585H69.0281C69.0281 123.033 69.4758 122.585 70.0281 122.585V123.585ZM107.199 123.585H108.199C108.199 124.137 107.751 124.585 107.199 124.585V123.585ZM107.199 110.001V109.001C107.751 109.001 108.199 109.448 108.199 110.001H107.199ZM70.0281 110.001V111.001C69.4758 111.001 69.0281 110.553 69.0281 110.001H70.0281ZM70.0281 72V71C70.5803 71 71.0281 71.4477 71.0281 72H70.0281ZM54.8232 72L54.8232 161.455H52.8232L52.8232 72H54.8232ZM53.8232 160.455H111.13V162.455H53.8232V160.455ZM110.13 161.455V147.87H112.13V161.455H110.13ZM111.13 148.87H70.0281V146.87H111.13V148.87ZM69.0281 147.87V123.585H71.0281V147.87H69.0281ZM70.0281 122.585L107.199 122.585V124.585L70.0281 124.585V122.585ZM106.199 123.585V110.001H108.199V123.585H106.199ZM107.199 111.001L70.0281 111.001V109.001L107.199 109.001V111.001ZM69.0281 110.001V72H71.0281V110.001H69.0281ZM70.0281 73H53.8232V71H70.0281V73Z" fill="white" mask="url(#path-2-outside-1_2_113)"/>
<mask id="path-4-outside-2_2_113" maskUnits="userSpaceOnUse" x="83" y="37" width="61" height="92" fill="black">
<rect fill="white" x="83" y="37" width="61" height="92"/>
<path d="M142.177 128V38.5455L84.87 38.5455V52.1296L125.972 52.1296V76.4151L88.8011 76.4151V89.9993L125.972 89.9993V128H142.177Z"/>
</mask>
<path d="M142.177 128V38.5455L84.87 38.5455V52.1296L125.972 52.1296V76.4151L88.8011 76.4151V89.9993L125.972 89.9993V128H142.177Z" fill="white"/>
<path d="M142.177 128H143.177C143.177 128.552 142.729 129 142.177 129V128ZM142.177 38.5455V37.5455C142.729 37.5455 143.177 37.9932 143.177 38.5455H142.177ZM84.87 38.5455H83.87C83.87 37.9932 84.3177 37.5455 84.87 37.5455V38.5455ZM84.87 52.1296V53.1296C84.3177 53.1296 83.87 52.6819 83.87 52.1296H84.87ZM125.972 52.1296V51.1296C126.524 51.1296 126.972 51.5773 126.972 52.1296H125.972ZM125.972 76.4151H126.972C126.972 76.9674 126.524 77.4151 125.972 77.4151V76.4151ZM88.8011 76.4151H87.8011C87.8011 75.8628 88.2489 75.4151 88.8011 75.4151V76.4151ZM88.8011 89.9993V90.9993C88.2489 90.9993 87.8011 90.5516 87.8011 89.9993H88.8011ZM125.972 89.9993V88.9993C126.524 88.9993 126.972 89.447 126.972 89.9993H125.972ZM125.972 128V129C125.42 129 124.972 128.552 124.972 128H125.972ZM141.177 128V38.5455H143.177V128H141.177ZM142.177 39.5455L84.87 39.5455V37.5455L142.177 37.5455V39.5455ZM85.87 38.5455V52.1296H83.87V38.5455H85.87ZM84.87 51.1296L125.972 51.1296V53.1296L84.87 53.1296V51.1296ZM126.972 52.1296V76.4151H124.972V52.1296H126.972ZM125.972 77.4151L88.8011 77.4151V75.4151L125.972 75.4151V77.4151ZM89.8011 76.4151V89.9993H87.8011V76.4151H89.8011ZM88.8011 88.9993L125.972 88.9993V90.9993L88.8011 90.9993V88.9993ZM126.972 89.9993V128H124.972V89.9993H126.972ZM125.972 127H142.177V129H125.972V127Z" fill="white" mask="url(#path-4-outside-2_2_113)"/>
</svg>
