<svg width="90" height="90" viewBox="0 0 90 90" fill="none" xmlns="http://www.w3.org/2000/svg">
<rect y="45" width="63.6396" height="63.6396" rx="5" transform="rotate(-45 0 45)" fill="#DCE0E0"/>
<mask id="path-2-outside-1_13_59" maskUnits="userSpaceOnUse" x="23.5396" y="32.1372" width="29" height="42" fill="black">
<rect fill="white" x="23.5396" y="32.1372" width="29" height="42"/>
<path d="M25.4849 33.1372L25.4849 73.1372H51.1099V67.063H32.731V56.2036H49.3521V50.1294H32.731V33.1372H25.4849Z"/>
</mask>
<path d="M25.4849 33.1372L25.4849 73.1372H51.1099V67.063H32.731V56.2036H49.3521V50.1294H32.731V33.1372H25.4849Z" fill="#212145"/>
<path d="M25.4849 33.1372H24.4849C24.4849 32.5849 24.9326 32.1372 25.4849 32.1372V33.1372ZM25.4849 73.1372V74.1372C24.9326 74.1372 24.4849 73.6895 24.4849 73.1372H25.4849ZM51.1099 73.1372H52.1099C52.1099 73.6895 51.6621 74.1372 51.1099 74.1372V73.1372ZM51.1099 67.063V66.063C51.6621 66.063 52.1099 66.5107 52.1099 67.063H51.1099ZM32.731 67.063V68.063C32.1787 68.063 31.731 67.6153 31.731 67.063H32.731ZM32.731 56.2036H31.731C31.731 55.6513 32.1787 55.2036 32.731 55.2036V56.2036ZM49.3521 56.2036H50.3521C50.3521 56.7559 49.9043 57.2036 49.3521 57.2036V56.2036ZM49.3521 50.1294V49.1294C49.9043 49.1294 50.3521 49.5771 50.3521 50.1294H49.3521ZM32.731 50.1294L32.731 51.1294C32.1787 51.1294 31.731 50.6817 31.731 50.1294H32.731ZM32.731 33.1372V32.1372C33.2832 32.1372 33.731 32.5849 33.731 33.1372H32.731ZM26.4849 33.1372L26.4849 73.1372H24.4849L24.4849 33.1372H26.4849ZM25.4849 72.1372H51.1099V74.1372H25.4849V72.1372ZM50.1099 73.1372V67.063H52.1099V73.1372H50.1099ZM51.1099 68.063H32.731V66.063H51.1099V68.063ZM31.731 67.063L31.731 56.2036H33.731V67.063H31.731ZM32.731 55.2036H49.3521V57.2036H32.731V55.2036ZM48.3521 56.2036V50.1294H50.3521V56.2036H48.3521ZM49.3521 51.1294H32.731L32.731 49.1294H49.3521V51.1294ZM31.731 50.1294V33.1372H33.731V50.1294H31.731ZM32.731 34.1372H25.4849V32.1372H32.731V34.1372Z" fill="#212145" mask="url(#path-2-outside-1_13_59)"/>
<mask id="path-4-outside-2_13_59" maskUnits="userSpaceOnUse" x="37.535" y="15.9373" width="29" height="42" fill="black">
<rect fill="white" x="37.535" y="15.9373" width="29" height="42"/>
<path d="M64.5897 56.9373V16.9373L38.9647 16.9373V23.0115L57.3436 23.0115V33.8708H40.7225V39.9451H57.3436V56.9373H64.5897Z"/>
</mask>
<path d="M64.5897 56.9373V16.9373L38.9647 16.9373V23.0115L57.3436 23.0115V33.8708H40.7225V39.9451H57.3436V56.9373H64.5897Z" fill="#212145"/>
<path d="M64.5897 56.9373H65.5897C65.5897 57.4895 65.1419 57.9373 64.5897 57.9373V56.9373ZM64.5897 16.9373V15.9373C65.1419 15.9373 65.5897 16.385 65.5897 16.9373H64.5897ZM38.9647 16.9373H37.9647C37.9647 16.385 38.4124 15.9373 38.9647 15.9373V16.9373ZM38.9647 23.0115V24.0115C38.4124 24.0115 37.9647 23.5638 37.9647 23.0115H38.9647ZM57.3436 23.0115V22.0115C57.8959 22.0115 58.3436 22.4592 58.3436 23.0115H57.3436ZM57.3436 33.8708H58.3436C58.3436 34.4231 57.8959 34.8708 57.3436 34.8708V33.8708ZM40.7225 33.8708H39.7225C39.7225 33.3186 40.1702 32.8708 40.7225 32.8708V33.8708ZM40.7225 39.9451V40.9451C40.1702 40.9451 39.7225 40.4974 39.7225 39.9451H40.7225ZM57.3436 39.9451L57.3436 38.9451C57.8959 38.9451 58.3436 39.3928 58.3436 39.9451H57.3436ZM57.3436 56.9373V57.9373C56.7913 57.9373 56.3436 57.4895 56.3436 56.9373H57.3436ZM63.5897 56.9373L63.5897 16.9373H65.5897V56.9373H63.5897ZM64.5897 17.9373L38.9647 17.9373V15.9373L64.5897 15.9373V17.9373ZM39.9647 16.9373V23.0115H37.9647V16.9373H39.9647ZM38.9647 22.0115L57.3436 22.0115V24.0115L38.9647 24.0115V22.0115ZM58.3436 23.0115V33.8708H56.3436V23.0115H58.3436ZM57.3436 34.8708H40.7225V32.8708H57.3436V34.8708ZM41.7225 33.8708V39.9451H39.7225V33.8708H41.7225ZM40.7225 38.9451H57.3436L57.3436 40.9451H40.7225V38.9451ZM58.3436 39.9451V56.9373H56.3436V39.9451H58.3436ZM57.3436 55.9373H64.5897V57.9373H57.3436V55.9373Z" fill="#212145" mask="url(#path-4-outside-2_13_59)"/>
</svg>
