<svg width="90" height="90" viewBox="0 0 90 90" fill="none" xmlns="http://www.w3.org/2000/svg">
<rect y="45" width="63.6396" height="63.6396" rx="5" transform="rotate(-45 0 45)" fill="#15015E"/>
<mask id="path-2-outside-1_13_68" maskUnits="userSpaceOnUse" x="23.5396" y="32.1373" width="29" height="42" fill="black">
<rect fill="white" x="23.5396" y="32.1373" width="29" height="42"/>
<path d="M25.4849 33.1373L25.4849 73.1373H51.1099V67.0631H32.731V56.2037H49.3521V50.1295H32.731V33.1373H25.4849Z"/>
</mask>
<path d="M25.4849 33.1373L25.4849 73.1373H51.1099V67.0631H32.731V56.2037H49.3521V50.1295H32.731V33.1373H25.4849Z" fill="white"/>
<path d="M25.4849 33.1373H24.4849C24.4849 32.585 24.9326 32.1373 25.4849 32.1373V33.1373ZM25.4849 73.1373V74.1373C24.9326 74.1373 24.4849 73.6896 24.4849 73.1373H25.4849ZM51.1099 73.1373H52.1099C52.1099 73.6896 51.6621 74.1373 51.1099 74.1373V73.1373ZM51.1099 67.0631V66.0631C51.6621 66.0631 52.1099 66.5108 52.1099 67.0631H51.1099ZM32.731 67.0631V68.0631C32.1787 68.0631 31.731 67.6154 31.731 67.0631H32.731ZM32.731 56.2037H31.731C31.731 55.6515 32.1787 55.2037 32.731 55.2037V56.2037ZM49.3521 56.2037H50.3521C50.3521 56.756 49.9043 57.2037 49.3521 57.2037V56.2037ZM49.3521 50.1295V49.1295C49.9043 49.1295 50.3521 49.5772 50.3521 50.1295H49.3521ZM32.731 50.1295L32.731 51.1295C32.1787 51.1295 31.731 50.6818 31.731 50.1295H32.731ZM32.731 33.1373V32.1373C33.2832 32.1373 33.731 32.585 33.731 33.1373H32.731ZM26.4849 33.1373L26.4849 73.1373H24.4849L24.4849 33.1373H26.4849ZM25.4849 72.1373H51.1099V74.1373H25.4849V72.1373ZM50.1099 73.1373V67.0631H52.1099V73.1373H50.1099ZM51.1099 68.0631H32.731V66.0631H51.1099V68.0631ZM31.731 67.0631L31.731 56.2037H33.731V67.0631H31.731ZM32.731 55.2037H49.3521V57.2037H32.731V55.2037ZM48.3521 56.2037V50.1295H50.3521V56.2037H48.3521ZM49.3521 51.1295H32.731L32.731 49.1295H49.3521V51.1295ZM31.731 50.1295V33.1373H33.731V50.1295H31.731ZM32.731 34.1373H25.4849V32.1373H32.731V34.1373Z" fill="white" mask="url(#path-2-outside-1_13_68)"/>
<mask id="path-4-outside-2_13_68" maskUnits="userSpaceOnUse" x="37.5349" y="15.9372" width="29" height="42" fill="black">
<rect fill="white" x="37.5349" y="15.9372" width="29" height="42"/>
<path d="M64.5896 56.9372V16.9372L38.9646 16.9372V23.0114L57.3435 23.0114V33.8708H40.7224V39.945H57.3435V56.9372H64.5896Z"/>
</mask>
<path d="M64.5896 56.9372V16.9372L38.9646 16.9372V23.0114L57.3435 23.0114V33.8708H40.7224V39.945H57.3435V56.9372H64.5896Z" fill="white"/>
<path d="M64.5896 56.9372H65.5896C65.5896 57.4895 65.1419 57.9372 64.5896 57.9372V56.9372ZM64.5896 16.9372V15.9372C65.1419 15.9372 65.5896 16.3849 65.5896 16.9372H64.5896ZM38.9646 16.9372H37.9646C37.9646 16.3849 38.4123 15.9372 38.9646 15.9372V16.9372ZM38.9646 23.0114V24.0114C38.4123 24.0114 37.9646 23.5637 37.9646 23.0114H38.9646ZM57.3435 23.0114V22.0114C57.8958 22.0114 58.3435 22.4592 58.3435 23.0114H57.3435ZM57.3435 33.8708H58.3435C58.3435 34.4231 57.8958 34.8708 57.3435 34.8708V33.8708ZM40.7224 33.8708H39.7224C39.7224 33.3185 40.1701 32.8708 40.7224 32.8708V33.8708ZM40.7224 39.945V40.945C40.1701 40.945 39.7224 40.4973 39.7224 39.945H40.7224ZM57.3435 39.945L57.3435 38.945C57.8958 38.945 58.3435 39.3928 58.3435 39.945H57.3435ZM57.3435 56.9372V57.9372C56.7912 57.9372 56.3435 57.4895 56.3435 56.9372H57.3435ZM63.5896 56.9372L63.5896 16.9372H65.5896V56.9372H63.5896ZM64.5896 17.9372L38.9646 17.9372V15.9372L64.5896 15.9372V17.9372ZM39.9646 16.9372V23.0114H37.9646V16.9372H39.9646ZM38.9646 22.0114L57.3435 22.0114V24.0114L38.9646 24.0114V22.0114ZM58.3435 23.0114V33.8708H56.3435V23.0114H58.3435ZM57.3435 34.8708H40.7224V32.8708H57.3435V34.8708ZM41.7224 33.8708V39.945H39.7224V33.8708H41.7224ZM40.7224 38.945H57.3435L57.3435 40.945H40.7224V38.945ZM58.3435 39.945V56.9372H56.3435V39.945H58.3435ZM57.3435 55.9372H64.5896V57.9372H57.3435V55.9372Z" fill="white" mask="url(#path-4-outside-2_13_68)"/>
</svg>
