<svg width="250" height="81" viewBox="0 0 250 81" fill="none" xmlns="http://www.w3.org/2000/svg">
<path d="M7.584 40.784H12.576C15.008 40.784 16.912 40.16 18.288 38.912C19.664 37.632 20.352 36.016 20.352 34.064C20.352 31.888 19.648 30.16 18.24 28.88C16.832 27.6 14.832 26.96 12.24 26.96H7.584V40.784ZM3.696 23.648H12.192C15.936 23.648 18.88 24.624 21.024 26.576C23.2 28.496 24.288 30.992 24.288 34.064C24.288 36.944 23.216 39.344 21.072 41.264C18.928 43.152 16.096 44.096 12.576 44.096H7.584V56H3.696V23.648ZM33.7403 27.008V39.92H38.6363C40.8443 39.92 42.5243 39.328 43.6763 38.144C44.8603 36.928 45.4523 35.376 45.4523 33.488C45.4523 29.168 43.0363 27.008 38.2043 27.008H33.7403ZM51.3563 56H46.7003L38.7803 43.232H38.3963H33.7403V56H29.8523V23.648H37.9643C41.7083 23.648 44.5403 24.528 46.4603 26.288C48.4123 28.048 49.3883 30.48 49.3883 33.584C49.3243 35.824 48.7323 37.728 47.6123 39.296C46.4923 40.864 44.9083 41.968 42.8603 42.608L51.3563 56ZM54.7571 39.68C54.7571 34.592 56.0531 30.544 58.6451 27.536C61.2691 24.528 64.8051 23.024 69.2531 23.024C73.7971 23.024 77.3491 24.528 79.9091 27.536C82.5011 30.512 83.7971 34.56 83.7971 39.68C83.7971 44.768 82.4851 48.832 79.8611 51.872C77.2691 54.88 73.7491 56.384 69.3011 56.384C64.9171 56.384 61.3971 54.864 58.7411 51.824C56.0851 48.784 54.7571 44.736 54.7571 39.68ZM58.8371 39.68C58.8371 43.68 59.7811 46.848 61.6691 49.184C63.5891 51.52 66.1331 52.688 69.3011 52.688C72.5971 52.688 75.1411 51.536 76.9331 49.232C78.7571 46.928 79.6691 43.744 79.6691 39.68C79.6691 35.616 78.7571 32.432 76.9331 30.128C75.1091 27.824 72.5491 26.672 69.2531 26.672C65.9891 26.672 63.4291 27.84 61.5731 30.176C59.7491 32.48 58.8371 35.648 58.8371 39.68ZM113.279 23.648L102.191 43.952V56H98.3025V44L87.3105 23.648H91.8225L94.2705 28.4C95.9345 31.6 97.2625 34.208 98.2545 36.224C99.2465 38.24 99.8225 39.456 99.9825 39.872L100.223 40.448C100.511 39.648 102.543 35.632 106.319 28.4L108.767 23.648H113.279ZM122.1 52.592H136.26V56H118.212V23.648H136.02V27.056H122.1V38.144H134.388V41.552H122.1V52.592ZM165.347 24.944V28.928C163.939 28.192 162.675 27.664 161.555 27.344C160.435 27.024 158.963 26.864 157.139 26.864C153.651 26.864 150.739 28.048 148.403 30.416C146.099 32.784 144.947 35.872 144.947 39.68C144.947 43.648 146.099 46.816 148.403 49.184C150.707 51.552 153.763 52.736 157.571 52.736C160.643 52.736 163.267 51.92 165.443 50.288V54.368C163.459 55.712 160.739 56.384 157.283 56.384C152.419 56.384 148.467 54.896 145.427 51.92C142.387 48.912 140.867 44.832 140.867 39.68C140.867 34.816 142.403 30.864 145.475 27.824C148.579 24.752 152.467 23.216 157.139 23.216C160.499 23.216 163.235 23.792 165.347 24.944ZM189.662 23.648V27.056H180.926V56H177.038V27.056H168.302V23.648H189.662ZM192.898 39.68C192.898 34.592 194.194 30.544 196.786 27.536C199.41 24.528 202.946 23.024 207.394 23.024C211.938 23.024 215.49 24.528 218.05 27.536C220.642 30.512 221.938 34.56 221.938 39.68C221.938 44.768 220.626 48.832 218.002 51.872C215.41 54.88 211.89 56.384 207.442 56.384C203.058 56.384 199.538 54.864 196.882 51.824C194.226 48.784 192.898 44.736 192.898 39.68ZM196.978 39.68C196.978 43.68 197.922 46.848 199.81 49.184C201.73 51.52 204.274 52.688 207.442 52.688C210.738 52.688 213.282 51.536 215.074 49.232C216.898 46.928 217.81 43.744 217.81 39.68C217.81 35.616 216.898 32.432 215.074 30.128C213.25 27.824 210.69 26.672 207.394 26.672C204.13 26.672 201.57 27.84 199.714 30.176C197.89 32.48 196.978 35.648 196.978 39.68ZM244.843 24.848V28.928C242.891 27.648 240.555 27.008 237.835 27.008C235.883 27.008 234.331 27.472 233.179 28.4C232.027 29.296 231.451 30.48 231.451 31.952C231.451 32.72 231.595 33.408 231.883 34.016C232.203 34.624 232.747 35.2 233.515 35.744C234.283 36.256 234.939 36.656 235.483 36.944C236.027 37.2 236.875 37.584 238.027 38.096C239.115 38.576 239.947 38.96 240.523 39.248C241.099 39.504 241.835 39.936 242.731 40.544C243.659 41.12 244.347 41.696 244.795 42.272C245.275 42.816 245.691 43.552 246.043 44.48C246.427 45.376 246.619 46.352 246.619 47.408C246.619 50.256 245.643 52.464 243.691 54.032C241.739 55.568 239.227 56.336 236.155 56.336C232.763 56.336 229.883 55.648 227.515 54.272V50.096C229.851 51.856 232.699 52.736 236.059 52.736C238.075 52.736 239.659 52.288 240.811 51.392C241.963 50.496 242.539 49.2 242.539 47.504C242.539 46.8 242.395 46.176 242.107 45.632C241.851 45.056 241.403 44.544 240.763 44.096C240.155 43.616 239.563 43.232 238.987 42.944C238.443 42.624 237.691 42.24 236.731 41.792C236.539 41.696 236.251 41.568 235.867 41.408C234.491 40.8 233.435 40.304 232.699 39.92C231.995 39.536 231.147 38.976 230.155 38.24C229.195 37.472 228.491 36.592 228.043 35.6C227.595 34.608 227.371 33.456 227.371 32.144C227.371 29.392 228.347 27.248 230.299 25.712C232.283 24.144 234.763 23.36 237.739 23.36C240.523 23.36 242.891 23.856 244.843 24.848Z" fill="#212145"/>
<line x1="117" y1="78.5" x2="250" y2="78.5" stroke="#087F8C" stroke-width="5"/>
<line x1="78.2129" y1="1.8368" x2="119.213" y2="79.8368" stroke="#087F8C" stroke-width="5"/>
<line y1="2.5" x2="80" y2="2.5" stroke="#087F8C" stroke-width="5"/>
</svg>
